<?xml version="1.0" encoding="UTF-8"?><svg id="Layer_2" xmlns="http://www.w3.org/2000/svg" viewBox="0 0 666.63 666.67"><defs><style>.cls-1{fill-rule:evenodd;stroke-width:0px;}</style></defs><g id="Layer_1-2"><path id="confirmation" class="cls-1" d="m100,666.67c-55.23,0-100-44.77-100-100v-200c0-55.23,44.77-100,100-100h46.03L251.76,55.28C267.7,23.39,299.31,2.56,334.55.22l6.65-.22h8.8c44.18,0,80.33,34.38,83.16,77.85l.18,5.48v183.33h133.28c6.59,0,13.15.65,19.61,1.94,52.22,10.44,86.74,59.8,79.43,111.87l-.99,5.79-40,200c-8.96,44.79-47.02,77.56-92.14,80.21l-5.92.17H100Zm33.33-333.33h-33.33c-18.41,0-33.33,14.92-33.33,33.33v200c0,18.41,14.92,33.33,33.33,33.33h33.33v-266.67ZM350,66.67h-8.8c-11.22,0-21.59,5.64-27.72,14.82l-2.09,3.61-107.87,215.74c-1.74,3.47-2.85,7.21-3.29,11.05l-.22,3.86v284.26h326.61c14.57,0,27.27-9.42,31.69-23l.99-3.8,40-200c3.61-18.05-8.1-35.61-26.15-39.22l-3.25-.49h0l-3.28-.16h-133.28c-35.15,0-63.94-27.2-66.48-61.69l-.18-4.98V83.33c0-8.18-5.9-14.99-13.67-16.4l-3-.27Z"/></g></svg>