<?xml version="1.0" encoding="UTF-8"?><svg id="Layer_2" xmlns="http://www.w3.org/2000/svg" viewBox="0 0 800.08 600"><defs><style>.cls-1{stroke-width:0px;}</style></defs><g id="Layer_1-2"><path id="creditCard" class="cls-1" d="m.04,550.4c0,13.87,4.8,25.6,14.4,35.2,9.6,9.6,21.6,14.4,36,14.4h700c13.33,0,25.07-4.8,35.2-14.4,10.13-9.6,14.93-21.33,14.4-35.2V50.4c0-13.87-4.8-25.6-14.4-35.2-9.6-9.6-21.33-14.67-35.2-15.2H50.44c-13.87,0-25.87,5.07-36,15.2C4.31,25.33-.49,37.07.04,50.4v500h0Zm50.4,0V200h700v350.4H50.44Zm0-450.4v-49.6h700v49.6H50.44Zm49.6,400h100v-49.6h-100v49.6Zm0-100h150.4v-149.6H100.04v149.6Zm150.4,100h100v-49.6h-100v49.6Zm149.6,0h100v-49.6h-100v49.6Zm150.4,0h49.6v-49.6h-49.6v49.6Zm100,0h49.6v-49.6h-49.6v49.6Z"/></g></svg>