<?xml version="1.0" encoding="UTF-8"?><svg id="Layer_2" xmlns="http://www.w3.org/2000/svg" viewBox="0 0 640 640"><defs><style>.cls-1{fill:none;stroke:#000;stroke-linecap:round;stroke-linejoin:round;stroke-width:48px;}.cls-2{stroke-width:0px;}</style></defs><g id="error"><path class="cls-2" d="m284.19,444.8c0-4.73.93-9.42,2.76-13.79,1.82-4.37,4.49-8.34,7.85-11.67,3.36-3.33,7.35-5.96,11.74-7.75,4.39-1.78,9.08-2.68,13.81-2.64,6.98.13,13.77,2.31,19.52,6.27,5.75,3.96,10.2,9.54,12.8,16.02,2.6,6.48,3.23,13.59,1.81,20.43-1.42,6.84-4.82,13.11-9.78,18.03-4.96,4.92-11.26,8.26-18.11,9.62-6.85,1.36-13.95.66-20.41-2-6.46-2.66-11.99-7.16-15.9-12.94-3.91-5.78-6.04-12.59-6.1-19.58Zm11.52-87.36l-4.48-167.04c-.43-4.02,0-8.08,1.25-11.92,1.24-3.84,3.28-7.38,5.98-10.38,2.7-3,6-5.4,9.69-7.05,3.69-1.64,7.68-2.49,11.72-2.49s8.03.85,11.72,2.49c3.69,1.64,6.99,4.04,9.69,7.05,2.7,3,4.74,6.54,5.98,10.38,1.25,3.84,1.67,7.9,1.25,11.92l-4.16,167.04c0,6.45-2.56,12.64-7.12,17.2-4.56,4.56-10.75,7.12-17.2,7.12s-12.64-2.56-17.2-7.12-7.13-10.75-7.13-17.2Z"/><path class="cls-1" d="m320,616c163.48,0,296-132.52,296-296S483.48,24,320,24,24,156.52,24,320s132.52,296,296,296Z"/></g></svg>