<?xml version="1.0" encoding="UTF-8"?><svg id="Layer_2" xmlns="http://www.w3.org/2000/svg" viewBox="0 0 633.33 666.67"><defs><style>.cls-1{stroke-width:0px;}</style></defs><g id="Layer_1-2"><g id="infoUser"><path class="cls-1" d="m437.97,358.75c47.77-36.55,78.7-93.97,78.7-158.75C516.67,89.55,427.12,0,316.67,0S116.67,89.55,116.67,200c0,64.78,30.93,122.2,78.7,158.75C80.67,408.85,0,527.75,0,666.67h633.33c0-138.92-80.67-257.82-195.37-307.92Zm-254.63-158.75c0-73.52,59.82-133.33,133.33-133.33s133.33,59.82,133.33,133.33-59.82,133.33-133.33,133.33-133.33-59.82-133.33-133.33Zm133.33,200c116.28,0,214.27,85.12,242.08,200H74.58c27.82-114.88,125.8-200,242.08-200Z"/></g></g></svg>