<?xml version="1.0" encoding="UTF-8"?><svg id="Layer_2" xmlns="http://www.w3.org/2000/svg" viewBox="0 0 304.63 154.24"><defs><style>.cls-1{fill:#51ffcf;}.cls-1,.cls-2,.cls-3,.cls-4,.cls-5,.cls-6,.cls-7,.cls-8,.cls-9{stroke-width:0px;}.cls-2{fill:#1ed103;}.cls-10{opacity:.8;}.cls-3{fill:#fb203f;}.cls-11{opacity:.7;}.cls-4{fill:#3b4d51;}.cls-5{fill:#ff32c7;}.cls-6{fill:#fea219;}.cls-7{fill:#8efc08;}.cls-8{fill:#f6eb08;}.cls-9{fill:#b227ff;}</style></defs><g id="Layer_1-2"><g class="cls-10"><path class="cls-8" d="m143.75,49.99c-7.71-5.52-15.46-7.56-23.23-6.1-7.78,1.46-14.28,5.83-19.49,13.11-5.57,7.78-7.63,15.52-6.19,23.23,1.12,5.95,4.01,11.17,8.65,15.67.14,0,.28,0,.42,0,.15-.08.31-.15.47-.2,3.07-.91,6.32-1.1,9.51-1.16,2.67-.04,5.34-.07,7.96.55,2.52.6,4.76,1.94,6.62,3.72,1.07,1.02,1.86,2.21,2.19,3.67.23,1.01.25,2.04.48,3.05,3.67-.83,7.08-2.66,10.24-5.45-.26-.58-.48-1.18-.65-1.78-.21-.78-.33-1.61-.34-2.43l-9.2-7.36c-5.55,5.22-11.02,5.91-16.41,2.05-3.32-2.38-5.13-5.31-5.44-8.79-.31-3.48,1.71-8.25,6.05-14.31,7.51-10.49,14.67-13.3,21.47-8.43,5.93,4.25,6.55,9.85,1.87,16.79l14.17,9.03c7.25-13.68,4.19-25.3-9.17-34.86Z"/></g><g class="cls-10"><path class="cls-1" d="m57.38,30.99c-1.2-3.42-1.29-7.13.39-10.41.71-1.39,1.73-2.65,2.96-3.63-3.41-2.32-7.32-3.56-11.72-3.73-.05.09-.09.18-.14.27.04-.09.08-.18.13-.27h0c-.32.7-.65,1.4-.97,2.09-.6,1.35-1.07,2.71-2.12,3.8-.12.12-.25.22-.38.31l1.93,9.2c4.22-.28,7.53.52,9.94,2.37Z"/><path class="cls-1" d="m70.18,44.33c-1.71-1.16-3.35-2.42-4.95-3.73-1.39-1.14-2.74-2.28-3.95-3.53.04.14.09.28.13.42,1.05,3.95.58,7.36-1.4,10.24-1.98,2.88-6.57,5.28-13.77,7.19-12.47,3.31-19.78.93-21.93-7.16-1.87-7.05,1.21-11.76,9.25-14.14l-5.19-15.98c-14.29,5.94-19.33,16.85-15.11,32.73,2.43,9.17,7.11,15.66,14.04,19.49,6.93,3.83,14.72,4.59,23.38,2.29,9.25-2.46,15.77-7.12,19.55-13.98,1.99-3.6,3.12-7.46,3.43-11.58-1.26-.52-2.36-1.49-3.48-2.25Z"/></g><g class="cls-11"><path class="cls-2" d="m97.71,43.38c-.1-.7-.16-1.41-.2-2.12-.12-1.98-.13-4.08.15-6.05,0-.05.02-.1.02-.15.1-2.4.46-4.79,1.58-6.85.02-.06.04-.11.07-.17.19-.45.46-.83.79-1.12.97-1.29,2.28-2.54,3.66-3.41-1.09-2.75-2.76-5.39-5.03-7.93l-10.65,11.33c4.76,5.95,5.01,11.46.74,16.52-2.63,3.12-5.7,4.69-9.19,4.72-3.5.03-8.09-2.36-13.78-7.17-9.86-8.32-12.09-15.68-6.69-22.08,4.71-5.57,10.34-5.75,16.89-.52l10.13-13.41c-13.06-8.31-24.88-6.19-35.48,6.36-6.12,7.25-8.76,14.8-7.93,22.67.83,7.87,4.67,14.69,11.51,20.48,7.31,6.17,14.86,8.85,22.66,8.02,7.79-.83,14.61-4.7,20.45-11.61.35-.42.67-.84.99-1.26-.29-.85-.38-1.79-.47-2.67-.13-1.19-.18-2.39-.21-3.58Z"/></g><g class="cls-10"><path class="cls-7" d="m116.9,64.96c1.6-1.93,3.35-3.75,5.37-5.24,2.27-1.67,4.77-2.95,7.62-3.14,2.22-.15,4.26.56,6.03,1.76,1.47-2.91,2.37-6.23,2.64-10.01l-15.55.22c-.97,7.56-4.75,11.57-11.36,12.01-4.07.27-7.33-.83-9.78-3.33-2.45-2.49-3.92-7.46-4.43-14.89-.87-12.87,2.87-19.59,11.22-20.16,7.28-.49,11.32,3.44,12.12,11.78l16.68-2.04c-3.1-15.16-12.84-22.19-29.24-21.09-9.46.64-16.73,3.99-21.81,10.06-5.08,6.07-7.32,13.57-6.71,22.51.64,9.55,3.97,16.84,9.99,21.86,6.01,5.03,13.53,7.24,22.56,6.63.12,0,.24-.03.36-.04.52-2.8,2.68-4.94,4.3-6.91Z"/></g><g class="cls-10"><path class="cls-6" d="m142.27,105.72c-.64-9.46-3.99-16.73-10.06-21.81s-13.57-7.32-22.51-6.71c-9.55.64-16.84,3.97-21.86,9.99s-7.24,13.53-6.63,22.56c0,.06.01.11.02.17,4.55,1.94,8.33,5.43,11.49,9.17,3.4,4.02,5.49,9.62,2.53,14.52-.01.02-.03.04-.05.06,2.8,1.35,6,2.15,9.58,2.41l-.22-15.55c-7.56-.97-11.57-4.75-12.01-11.36-.27-4.07.83-7.33,3.33-9.78s7.46-3.92,14.89-4.43c12.87-.87,19.59,2.87,20.16,11.22.49,7.28-3.44,11.32-11.78,12.12l2.04,16.68c15.16-3.1,22.19-12.84,21.09-29.24Z"/></g><g class="cls-10"><path class="cls-5" d="m73.61,102.82c-2.46-9.25-7.12-15.77-13.98-19.55-4.81-2.66-10.09-3.8-15.83-3.45-.82,2.1-2.32,4.01-3.43,5.93-1.4,2.39-2.73,4.87-4.95,6.6-1.05.82-2.19,1.68-3.37,2.31-1.37.72-2.87.94-4.39.98-1.43.04-2.85,0-4.26-.29-1.35-.29-2.62-.83-3.96-1.18-.55-.15-.98-.52-1.28-.98-2,3.09-3.13,6.59-3.41,10.48.05.02.1.04.15.06.62.27,1.14.57,1.65.95.77.3,1.52.63,2.24,1.04.22.12.44.25.66.37.06.03.37.18.49.24.42.18.85.35,1.29.5.23.08.46.14.7.2.59.09,1.18.2,1.75.38l6.43-1.35c-.5-7.61,2.46-12.26,8.86-13.96,3.95-1.05,7.36-.58,10.24,1.4s5.28,6.57,7.19,13.77c3.31,12.47.93,19.78-7.16,21.93-7.05,1.87-11.76-1.21-14.14-9.25l-15.98,5.19c5.94,14.29,16.85,19.33,32.73,15.11,9.17-2.44,15.66-7.12,19.49-14.04,3.83-6.93,4.59-14.72,2.29-23.38Z"/></g><g class="cls-10"><path class="cls-3" d="m109.21,118.02c-1.46-7.78-5.83-14.28-13.11-19.49-7.78-5.57-15.52-7.63-23.23-6.19-6.98,1.31-12.96,5.06-17.94,11.22,1.05,1.92,1.51,4.17,1.92,6.31.54,2.8.96,5.92.7,8.77-.47,5.04-4.04,11.15-9.76,10.77.96,3.6,2.87,6.95,5.75,10.05.01,0,.03-.01.04-.02.08-.02.16-.05.24-.08.77-.32,1.54-.69,2.35-.9.24-.06.48-.1.72-.14l7.7-9.63c-5.22-5.55-5.91-11.02-2.05-16.41,2.38-3.32,5.31-5.13,8.79-5.44,3.48-.3,8.25,1.71,14.31,6.05,10.49,7.51,13.3,14.67,8.43,21.47-4.25,5.93-9.85,6.55-16.79,1.87l-9.03,14.17c13.68,7.25,25.3,4.19,34.86-9.17,5.52-7.71,7.56-15.46,6.1-23.23Z"/></g><g class="cls-10"><path class="cls-9" d="m60.96,69.22c-1.7-6.07-5.24-11.18-10.61-15.35-.2.47-.54.9-1.07,1.2-2.66,1.51-6,1.56-8.97,1.61-2.01.04-3.92-.2-5.9-.49-1.33-.19-2.97-.27-4.34-.73-3.12-1.05-4.75-4.06-5.87-6.95-.21-.54-.36-1.1-.47-1.65-3.66.95-6.98,2.85-9.96,5.71.27.44.53.87.74,1.34.8,1.76,1.51,3.58,2.19,5.4l7.3,4.86c5.07-5.69,10.46-6.85,16.17-3.48,3.51,2.08,5.58,4.84,6.19,8.28.61,3.44-.98,8.37-4.77,14.79-6.56,11.11-13.45,14.53-20.65,10.28-6.28-3.71-7.39-9.23-3.33-16.57l-14.91-7.75c-6.02,14.26-1.96,25.57,12.18,33.93,8.17,4.83,16.06,6.17,23.68,4.04,7.62-2.13,13.71-7.05,18.27-14.77,4.87-8.24,6.25-16.13,4.13-23.68Z"/></g><path class="cls-4" d="m182.23,79.34v20h-2.4v-2.53c-1.19,1.96-2.99,2.94-5.39,2.94-1.99,0-3.63-.73-4.92-2.18-1.28-1.45-1.93-3.29-1.93-5.51s.63-4.16,1.91-5.67c1.27-1.51,2.96-2.27,5.06-2.27s3.72.81,5.01,2.43v-7.22h2.65Zm-2.65,10.91c0-1.3-.46-2.34-1.37-3.12s-1.97-1.17-3.19-1.17c-1.32,0-2.4.51-3.25,1.52-.85,1.02-1.27,2.44-1.27,4.28,0,1.98.39,3.49,1.17,4.53.78,1.04,1.85,1.55,3.21,1.55,1.24,0,2.33-.45,3.27-1.35.95-.9,1.42-1.95,1.42-3.16v-3.08Z"/><path class="cls-4" d="m198.02,94.93l2.46.44c-.45,1.26-1.33,2.31-2.63,3.14-1.3.83-2.84,1.24-4.61,1.24-2.33,0-4.21-.71-5.65-2.13-1.44-1.42-2.16-3.29-2.16-5.59s.75-4.26,2.24-5.71c1.5-1.45,3.37-2.18,5.63-2.18s4.02.67,5.37,2.01,2.05,3.34,2.08,6.01h-12.38c0,2.24.54,3.75,1.62,4.53s2.22,1.17,3.42,1.17c2.17,0,3.7-.97,4.59-2.92Zm-.15-4.5c-.02-.83-.18-1.57-.47-2.21-.29-.64-.79-1.19-1.48-1.65-.7-.45-1.54-.68-2.51-.68-1.32,0-2.43.41-3.35,1.23-.92.82-1.43,1.92-1.54,3.31h9.36Z"/><path class="cls-4" d="m201.69,95.5l2.53-.45c.56,1.87,2.34,2.8,5.33,2.8,1.1,0,2.04-.21,2.8-.64s1.15-1.03,1.15-1.81c0-1.16-.97-1.9-2.92-2.21l-3.59-.59c-1.41-.23-2.52-.69-3.36-1.38-.83-.68-1.25-1.59-1.25-2.71,0-1.24.57-2.28,1.7-3.11,1.14-.84,2.67-1.25,4.59-1.25,3.7,0,5.98,1.25,6.85,3.76l-2.43.45c-.7-1.54-2.13-2.31-4.3-2.31-1.08,0-1.97.19-2.66.58s-1.04.92-1.04,1.62c0,1.09.88,1.78,2.65,2.06l3.32.52c3.48.55,5.21,2.01,5.21,4.39,0,1.36-.65,2.46-1.94,3.29-1.29.84-3.01,1.25-5.16,1.25-4.04,0-6.53-1.42-7.49-4.25Z"/><path class="cls-4" d="m229.78,104.33h-2.65v-19.79h2.4v2.87c1.2-2.19,2.99-3.28,5.38-3.28,2.01,0,3.63.73,4.87,2.19s1.85,3.31,1.85,5.55c0,2.42-.64,4.33-1.91,5.75-1.27,1.42-2.9,2.13-4.89,2.13-2.14,0-3.82-.88-5.04-2.65v7.24Zm0-14.53v4.17c.17,1.12.71,2.04,1.64,2.77.92.73,1.88,1.09,2.88,1.09,1.16,0,2.18-.44,3.08-1.32s1.34-2.4,1.34-4.56c0-1.87-.4-3.3-1.21-4.31-.81-1.01-1.88-1.52-3.22-1.52-1.06,0-2,.36-2.84,1.07s-1.39,1.58-1.66,2.59Z"/><path class="cls-4" d="m256.08,94.93l2.46.44c-.45,1.26-1.33,2.31-2.63,3.14-1.3.83-2.84,1.24-4.61,1.24-2.33,0-4.21-.71-5.65-2.13-1.44-1.42-2.16-3.29-2.16-5.59s.75-4.26,2.24-5.71c1.5-1.45,3.37-2.18,5.63-2.18s4.02.67,5.37,2.01,2.05,3.34,2.08,6.01h-12.38c0,2.24.54,3.75,1.62,4.53s2.22,1.17,3.42,1.17c2.17,0,3.7-.97,4.59-2.92Zm-.15-4.5c-.02-.83-.18-1.57-.47-2.21-.29-.64-.79-1.19-1.48-1.65-.7-.45-1.54-.68-2.51-.68-1.32,0-2.43.41-3.35,1.23-.92.82-1.43,1.92-1.54,3.31h9.36Z"/><path class="cls-4" d="m269.61,97.77v1.82c-.93.11-1.74.16-2.43.16-3.3,0-4.94-1.5-4.94-4.49v-8.92h-3.02v-1.8h3.02l.12-3.72,2.46-.21v3.93h3.81v1.8h-3.81v9.3c0,1.53.91,2.29,2.73,2.29.61,0,1.29-.05,2.06-.16Z"/><path class="cls-4" d="m274.49,79.34v2.56h-2.85v-2.56h2.85Zm-.08,5.2v14.79h-2.65v-14.79h2.65Z"/><path class="cls-4" d="m286.65,97.77v1.82c-.93.11-1.74.16-2.43.16-3.3,0-4.94-1.5-4.94-4.49v-8.92h-3.02v-1.8h3.02l.12-3.72,2.46-.21v3.93h3.81v1.8h-3.81v9.3c0,1.53.91,2.29,2.73,2.29.61,0,1.29-.05,2.06-.16Z"/><path class="cls-4" d="m286.5,95.5l2.53-.45c.56,1.87,2.34,2.8,5.33,2.8,1.1,0,2.04-.21,2.8-.64s1.15-1.03,1.15-1.81c0-1.16-.97-1.9-2.92-2.21l-3.59-.59c-1.41-.23-2.52-.69-3.36-1.38-.83-.68-1.25-1.59-1.25-2.71,0-1.24.57-2.28,1.7-3.11,1.14-.84,2.67-1.25,4.59-1.25,3.7,0,5.98,1.25,6.85,3.76l-2.43.45c-.7-1.54-2.13-2.31-4.3-2.31-1.08,0-1.97.19-2.66.58s-1.04.92-1.04,1.62c0,1.09.88,1.78,2.65,2.06l3.32.52c3.48.55,5.21,2.01,5.21,4.39,0,1.36-.65,2.46-1.94,3.29-1.29.84-3.01,1.25-5.16,1.25-4.04,0-6.53-1.42-7.49-4.25Z"/><path class="cls-4" d="m182.23,103.34v20h-2.4v-2.53c-1.19,1.96-2.99,2.94-5.39,2.94-1.99,0-3.63-.73-4.92-2.18-1.28-1.45-1.93-3.29-1.93-5.5s.63-4.16,1.91-5.67c1.27-1.51,2.96-2.27,5.06-2.27s3.72.81,5.01,2.43v-7.22h2.65Zm-2.65,10.91c0-1.3-.46-2.34-1.37-3.12s-1.97-1.17-3.19-1.17c-1.32,0-2.4.51-3.25,1.52-.85,1.02-1.27,2.44-1.27,4.28,0,1.98.39,3.49,1.17,4.53.78,1.04,1.85,1.55,3.21,1.55,1.24,0,2.33-.45,3.27-1.35.95-.9,1.42-1.95,1.42-3.16v-3.08Z"/><path class="cls-4" d="m198.02,118.93l2.46.44c-.45,1.26-1.33,2.31-2.63,3.14-1.3.83-2.84,1.24-4.61,1.24-2.33,0-4.21-.71-5.65-2.13-1.44-1.42-2.16-3.29-2.16-5.59s.75-4.26,2.24-5.71c1.5-1.45,3.37-2.18,5.63-2.18s4.02.67,5.37,2.01,2.05,3.34,2.08,6.01h-12.38c0,2.24.54,3.75,1.62,4.53s2.22,1.17,3.42,1.17c2.17,0,3.7-.97,4.59-2.92Zm-.15-4.5c-.02-.83-.18-1.57-.47-2.21-.29-.64-.79-1.19-1.48-1.65-.7-.45-1.54-.68-2.51-.68-1.32,0-2.43.41-3.35,1.23-.92.82-1.43,1.92-1.54,3.31h9.36Zm.61-10.96l-6.98,2.77-.72-1.19,6.69-3.34,1.02,1.76Z"/><path class="cls-4" d="m206.64,108.38v15.41c0,1.74-.47,2.95-1.42,3.63-.95.68-2.11,1.03-3.48,1.03-.67,0-1.5-.1-2.48-.31v-1.82c.73.15,1.38.22,1.94.22,1,0,1.72-.21,2.15-.62s.65-1.13.65-2.14v-15.4h2.65Zm.14-5.04v2.56h-3v-2.56h3Z"/><path class="cls-4" d="m222.39,118.93l2.46.44c-.45,1.26-1.33,2.31-2.63,3.14-1.3.83-2.84,1.24-4.61,1.24-2.33,0-4.21-.71-5.65-2.13-1.44-1.42-2.16-3.29-2.16-5.59s.75-4.26,2.24-5.71c1.5-1.45,3.37-2.18,5.63-2.18s4.02.67,5.37,2.01,2.05,3.34,2.08,6.01h-12.38c0,2.24.54,3.75,1.62,4.53s2.22,1.17,3.42,1.17c2.17,0,3.7-.97,4.59-2.92Zm-.15-4.5c-.02-.83-.18-1.57-.47-2.21-.29-.64-.79-1.19-1.48-1.65-.7-.45-1.54-.68-2.51-.68-1.32,0-2.43.41-3.35,1.23-.92.82-1.43,1.92-1.54,3.31h9.36Z"/><path class="cls-4" d="m241.78,123.34h-2.4v-2.83c-1.21,2.16-3.02,3.24-5.42,3.24-1.74,0-3.11-.5-4.1-1.5-.99-1-1.49-2.42-1.49-4.25v-9.46h2.65v9.45c0,1.46.35,2.47,1.05,3.02.7.55,1.48.83,2.32.83s1.63-.21,2.32-.63,1.27-1.02,1.73-1.79c.46-.78.69-1.62.69-2.54v-8.33h2.65v14.79Z"/><path class="cls-4" d="m259.74,123.34h-2.48v-9.51c0-1.37-.34-2.33-1.03-2.89-.69-.56-1.52-.83-2.5-.83-1.35,0-2.48.47-3.4,1.41-.92.94-1.38,2.17-1.38,3.71v8.12h-2.65v-14.79h2.46v2.72c1.38-2.09,3.18-3.13,5.38-3.13,1.27,0,2.35.29,3.25.86.89.57,1.51,1.21,1.84,1.93.33.71.5,2,.5,3.87v8.55Z"/><path class="cls-4" d="m275.53,118.93l2.46.44c-.45,1.26-1.33,2.31-2.63,3.14-1.3.83-2.84,1.24-4.61,1.24-2.33,0-4.21-.71-5.65-2.13-1.44-1.42-2.16-3.29-2.16-5.59s.75-4.26,2.24-5.71c1.5-1.45,3.37-2.18,5.63-2.18s4.02.67,5.37,2.01,2.05,3.34,2.08,6.01h-12.38c0,2.24.54,3.75,1.62,4.53s2.22,1.17,3.42,1.17c2.17,0,3.7-.97,4.59-2.92Zm-.15-4.5c-.02-.83-.18-1.57-.47-2.21-.29-.64-.79-1.19-1.48-1.65-.7-.45-1.54-.68-2.51-.68-1.32,0-2.43.41-3.35,1.23-.92.82-1.43,1.92-1.54,3.31h9.36Z"/><path class="cls-4" d="m284.15,123.34h-2.65v-14.79h2.33v3.46c.82-1.63,1.65-2.69,2.47-3.17.83-.48,1.67-.73,2.54-.73.27,0,.62.02,1.05.06v2.2h-.54c-1.46,0-2.68.47-3.64,1.42-.97.95-1.48,2.19-1.55,3.74v7.82Z"/><path class="cls-4" d="m290.04,119.5l2.53-.45c.56,1.87,2.34,2.8,5.33,2.8,1.1,0,2.04-.21,2.8-.64.76-.43,1.15-1.03,1.15-1.81,0-1.16-.97-1.9-2.92-2.21l-3.59-.59c-1.41-.23-2.52-.69-3.36-1.38-.83-.68-1.25-1.59-1.25-2.71,0-1.24.57-2.28,1.7-3.11,1.14-.84,2.67-1.25,4.59-1.25,3.7,0,5.98,1.25,6.85,3.76l-2.43.45c-.7-1.54-2.13-2.31-4.3-2.31-1.08,0-1.97.19-2.66.58s-1.04.92-1.04,1.62c0,1.09.88,1.78,2.65,2.06l3.32.52c3.48.55,5.21,2.01,5.21,4.39,0,1.36-.65,2.46-1.94,3.29-1.29.84-3.01,1.25-5.16,1.25-4.04,0-6.53-1.42-7.49-4.25Z"/><path class="cls-4" d="m189.85,63.43l7.02.68c-1.44,7.14-6.46,10.72-15.07,10.72-5.6,0-9.76-1.5-12.51-4.5-2.74-3-4.11-7.01-4.11-12.04,0-5.42,1.45-9.57,4.35-12.46,2.9-2.89,7.08-4.33,12.54-4.33,8.45,0,13.4,3.66,14.86,10.98l-7.09.73c-.76-4.87-3.34-7.3-7.74-7.3-5.88,0-8.82,4.23-8.82,12.69,0,7.88,2.94,11.82,8.82,11.82,2.36,0,4.11-.6,5.27-1.8,1.16-1.2,1.98-2.93,2.48-5.19Z"/><path class="cls-4" d="m203.18,42.09h7.63v27.65h16.3v4.5h-23.92v-32.15Z"/><path class="cls-4" d="m231.09,42.09h7.46v19.95c0,2.23.17,3.87.51,4.93.34,1.06,1.11,1.9,2.31,2.52s2.83.93,4.88.93c1.93,0,3.44-.25,4.52-.77,1.08-.51,1.84-1.23,2.29-2.17s.67-2.78.67-5.55v-19.85h6.85v19.6c0,3.14-.32,5.56-.96,7.25-.64,1.7-2.12,3.1-4.45,4.22s-5.45,1.67-9.36,1.67c-3.04,0-5.67-.35-7.91-1.05-2.24-.7-3.93-1.83-5.08-3.39-1.15-1.56-1.72-4.35-1.72-8.35v-19.95Z"/><path class="cls-4" d="m269.08,42.09h13.94c3.51,0,6.17.2,8,.59s3.36,1.27,4.62,2.63c1.26,1.36,1.89,3.01,1.89,4.96,0,3.56-2.28,5.91-6.85,7.04,5.51,1.21,8.27,3.9,8.27,8.08,0,2.37-1.09,4.44-3.26,6.21-2.17,1.77-6.33,2.65-12.47,2.65h-14.14v-32.15Zm7.46,13.33h4.83c3.4,0,5.63-.44,6.71-1.31,1.08-.87,1.62-2,1.62-3.38,0-1.62-.62-2.78-1.86-3.47-1.24-.7-3.15-1.05-5.74-1.05h-5.57v9.21Zm0,14.56h6.14c5.62,0,8.44-1.73,8.44-5.21,0-1.35-.6-2.56-1.79-3.63-1.19-1.07-3.62-1.6-7.29-1.6h-5.5v10.43Z"/></g></svg>