<?xml version="1.0" encoding="UTF-8"?><svg id="Layer_2" xmlns="http://www.w3.org/2000/svg" viewBox="0 0 763.67 765.2"><defs><style>.cls-1{fill:none;stroke:#020202;stroke-linecap:square;stroke-miterlimit:333.33;stroke-width:63.67px;}</style></defs><g id="Layer_1-2"><g id="moneyBag"><path class="cls-1" d="m570.83,733.37H192.83c-88.92,0-161-72.08-161-161h0c.01-39.76,14.73-78.11,41.33-107.67l245-272.33h127.33l245,272.33c26.6,29.55,41.32,67.91,41.33,107.67h0c0,88.92-72.08,161-161,161Z"/><path class="cls-1" d="m509.17,33.37l-13,66.67c-11.39,54-59.15,92.57-114.33,92.33h0c-55.6.11-103.5-39.14-114.33-93.67l-13-66.67,254.67,1.33Z"/><line class="cls-1" x1="604.5" y1="97.04" x2="477.17" y2="160.7"/><line class="cls-1" x1="636.5" y1="192.37" x2="445.5" y2="192.37"/><path class="cls-1" d="m318.17,574.37h79.67c26.33,0,47.67-21.34,47.67-47.67h0c.18-26.32-21.01-47.81-47.33-48-.11,0-.22,0-.33,0h-33.33c-26.33,0-47.67-21.34-47.67-47.67h0c-.01-26.33,21.32-47.68,47.65-47.69.45,0,.9,0,1.35.02h79.67"/><line class="cls-1" x1="381.83" y1="351.7" x2="381.83" y2="383.37"/><line class="cls-1" x1="381.83" y1="574.37" x2="381.83" y2="606.04"/></g></g></svg>